<svg xmlns="http://www.w3.org/2000/svg" viewBox="0 0 64 64" role="img" aria-label="Shiny Hunter Counter icon">
	<defs>
		<linearGradient id="bg" x1="0" y1="0" x2="1" y2="1">
			<stop offset="0%" stop-color="#0f172a" />
			<stop offset="100%" stop-color="#1e293b" />
		</linearGradient>
		<linearGradient id="topHalf" x1="0" y1="0" x2="0" y2="1">
			<stop offset="0%" stop-color="#ef4444" />
			<stop offset="100%" stop-color="#dc2626" />
		</linearGradient>
		<linearGradient id="bottomHalf" x1="0" y1="0" x2="0" y2="1">
			<stop offset="0%" stop-color="#f8fafc" />
			<stop offset="100%" stop-color="#e2e8f0" />
		</linearGradient>
	</defs>

	<rect width="64" height="64" rx="14" fill="url(#bg)" />

	<g transform="translate(6 8)">
		<circle cx="26" cy="24" r="21" fill="#0b1223" stroke="#f8fafc" stroke-width="2.6" />
		<path d="M5 24a21 21 0 0 1 42 0Z" fill="url(#topHalf)" />
		<path d="M5 24a21 21 0 0 0 42 0Z" fill="url(#bottomHalf)" />
		<rect x="5" y="22.6" width="42" height="2.8" fill="#0f172a" />
		<circle cx="26" cy="24" r="6.3" fill="#f8fafc" stroke="#0f172a" stroke-width="2" />
		<circle cx="26" cy="24" r="2.5" fill="#94a3b8" />

		<g transform="translate(40 2)">
			<path d="M6 0 7.6 4.2 12 6 7.6 7.8 6 12 4.4 7.8 0 6l4.4-1.8Z" fill="#fde047" />
			<circle cx="6" cy="6" r="1.2" fill="#f59e0b" />
		</g>
	</g>
</svg>